<?xml version="1.0" standalone="no"?>
<!DOCTYPE svg PUBLIC "-//W3C//DTD SVG 20010904//EN"
 "http://www.w3.org/TR/2001/REC-SVG-20010904/DTD/svg10.dtd">
<svg version="1.0" xmlns="http://www.w3.org/2000/svg"
 width="500.000000pt" height="500.000000pt" viewBox="0 0 500.000000 500.000000"
 preserveAspectRatio="xMidYMid meet">

<g transform="translate(0.000000,500.000000) scale(0.100000,-0.100000)"
fill="#000000" stroke="none">
<path d="M1026 2923 c-78 -24 -80 -24 -158 -9 -143 29 -265 14 -393 -49 -265
-131 -379 -434 -269 -710 15 -36 30 -68 35 -71 21 -13 6 -24 -31 -24 -43 0
-46 -4 -30 -44 13 -35 66 -66 112 -66 27 0 52 -10 87 -35 147 -106 336 -141
514 -96 85 22 118 37 197 91 41 27 69 38 109 42 59 6 97 35 103 78 3 22 -1 25
-34 28 -21 2 -38 4 -38 6 0 2 13 29 29 62 16 32 35 84 42 114 19 77 16 212 -6
290 -19 68 -21 103 -10 158 5 20 3 38 -4 46 -8 10 -9 20 -2 33 5 10 12 25 15
33 3 8 11 23 18 32 11 15 7 23 -27 58 -41 42 -65 49 -84 26 -20 -23 -51 -27
-51 -5 0 15 -29 42 -42 38 -2 0 -39 -12 -82 -26z m84 -13 c0 -31 -140 -120
-189 -120 -5 0 -15 -7 -22 -16 -11 -13 -10 -17 4 -25 13 -8 15 -20 10 -74 -5
-56 -4 -65 11 -65 9 0 16 -6 16 -13 0 -7 9 -21 21 -30 l21 -18 -26 -24 c-33
-30 -46 -65 -46 -119 0 -23 -4 -46 -9 -52 -5 -5 -12 -30 -16 -56 -6 -42 -5
-47 15 -53 12 -4 23 -5 26 -3 2 3 7 54 11 113 7 125 21 148 89 160 22 4 44 13
50 21 9 11 13 9 24 -12 12 -22 12 -27 0 -34 -8 -6 -27 -10 -42 -10 -31 0 -37
-14 -12 -24 19 -7 99 -8 106 -1 6 6 -11 58 -30 92 -17 31 -15 47 9 69 20 18
21 18 50 -13 26 -29 29 -38 29 -102 l0 -70 -46 -35 c-25 -19 -58 -38 -74 -41
-40 -9 -77 -56 -85 -108 -6 -40 -9 -44 -33 -42 -15 1 -37 5 -50 9 -15 5 -24 3
-28 -8 -3 -8 -11 -13 -18 -10 -17 7 -46 -49 -46 -89 0 -20 -4 -39 -10 -42 -14
-9 -13 30 6 243 16 183 16 184 -5 256 -29 99 -20 161 34 234 37 49 44 53 140
86 114 39 115 39 115 26z m-236 -27 c17 -10 17 -10 0 -18 -11 -5 -66 -10 -124
-11 -135 -2 -211 -26 -300 -93 -67 -50 -142 -139 -145 -170 0 -9 -9 -28 -18
-41 -12 -18 -17 -45 -17 -102 0 -70 -2 -78 -19 -78 -11 0 -26 -3 -35 -6 -13
-5 -16 3 -16 49 0 117 70 261 168 348 57 50 162 104 240 124 63 16 236 15 266
-2z m373 -2 c11 -17 10 -18 -12 -7 -13 6 -21 14 -19 18 8 13 18 9 31 -11z
m-13 -52 c15 -17 24 -34 21 -37 -6 -7 -85 68 -85 80 0 15 37 -10 64 -43z m-59
-21 c0 -20 -91 -118 -110 -118 -33 0 -24 26 31 81 57 58 79 68 79 37z m-375
-28 c0 -5 -13 -10 -29 -10 -15 0 -49 -3 -75 -6 -30 -4 -46 -3 -46 4 0 14 24
19 93 21 32 0 57 -3 57 -9z m-192 -22 c2 -12 -5 -17 -25 -20 -22 -2 -28 -8
-28 -28 0 -20 6 -26 28 -28 19 -2 27 -9 27 -22 0 -10 7 -25 15 -34 8 -8 15
-28 15 -45 0 -30 1 -31 50 -31 49 0 50 -1 50 -29 0 -17 -4 -32 -8 -35 -5 -3
-28 -50 -52 -105 l-43 -101 -63 0 c-61 0 -90 -12 -58 -24 9 -3 38 -6 65 -6 46
0 49 -2 49 -25 0 -24 -2 -25 -74 -25 -108 0 -106 -5 -106 256 0 175 3 214 15
224 21 17 43 6 47 -25 6 -51 21 -23 19 36 -1 37 2 66 10 75 16 20 63 14 67 -8z
m172 -101 c0 -35 7 -85 16 -111 14 -41 14 -50 3 -57 -25 -16 -29 -10 -29 39 0
45 -3 51 -60 107 -33 33 -60 65 -60 72 0 9 19 13 65 13 l65 0 0 -63z m290 -7
c0 -17 -47 -56 -57 -47 -2 3 -1 20 2 39 6 30 10 34 31 30 15 -3 24 -11 24 -22z
m-652 -45 c-6 -14 -15 -25 -20 -25 -11 0 -10 7 2 31 16 28 32 23 18 -6z m276
-2 c19 -23 19 -23 -2 -23 -17 0 -22 6 -22 27 0 14 1 24 3 22 1 -2 11 -14 21
-26z m583 -167 l6 -78 -34 7 c-44 10 -44 10 -20 34 17 17 21 34 22 94 0 59 2
68 11 47 5 -14 12 -60 15 -104z m-849 92 c3 -15 -4 -18 -37 -18 -30 0 -43 -5
-51 -19 -6 -12 -10 -103 -10 -225 0 -176 -2 -206 -15 -206 -13 0 -15 32 -15
227 0 263 1 266 79 261 34 -2 47 -7 49 -20z m-11 -193 c1 -86 -2 -122 -12
-131 -11 -11 -14 -9 -19 9 -8 31 -8 232 1 241 21 20 28 -9 30 -119z m385 69
c-2 -24 -7 -44 -12 -44 -4 0 -20 -38 -35 -84 -16 -47 -33 -84 -39 -83 -6 1
-10 -10 -8 -25 4 -44 -15 -41 -38 6 -24 51 -22 66 28 181 43 99 45 103 79 98
26 -4 28 -7 25 -49z m-540 -87 c5 -7 6 -24 3 -39 -13 -74 -17 -88 -23 -88 -13
0 -33 55 -39 104 l-6 49 29 -7 c16 -4 32 -13 36 -19z m1014 -26 c-3 -26 -15
-65 -25 -86 l-18 -37 -6 47 c-9 61 -9 110 0 118 3 4 17 7 31 7 24 0 24 -2 18
-49z m-150 -43 c-8 -42 -30 -56 -34 -22 -4 26 12 54 30 54 6 0 8 -13 4 -32z
m41 -125 c-2 -32 -3 -8 -3 52 0 61 1 87 3 58 2 -29 2 -78 0 -110z m-427 7 c0
-5 -4 -10 -10 -10 -5 0 -10 5 -10 10 0 6 5 10 10 10 6 0 10 -4 10 -10z m-117
-57 c-40 -2 -107 -2 -150 0 -43 1 -10 3 72 3 83 0 118 -2 78 -3z m-13 -58 c0
-22 -367 -22 -396 0 -17 13 4 14 189 15 177 0 207 -2 207 -15z m240 7 c0 -23
-30 -32 -110 -32 -80 0 -110 9 -110 32 0 4 50 8 110 8 61 0 110 -4 110 -8z
m420 -1 c0 -18 -34 -21 -211 -21 -152 0 -179 2 -179 15 0 13 28 15 195 15 108
0 195 -4 195 -9z"/>
<path d="M505 2500 c3 -5 42 -10 86 -10 46 0 79 4 79 10 0 6 -35 10 -86 10
-54 0 -83 -4 -79 -10z"/>
<path d="M507 2434 c-16 -17 10 -24 84 -24 64 0 79 3 79 15 0 12 -15 15 -78
15 -43 0 -82 -3 -85 -6z"/>
<path d="M505 2350 c-3 -5 5 -12 18 -15 37 -10 120 -1 125 13 5 15 -133 18
-143 2z"/>
<path d="M1661 2580 c-103 -24 -160 -139 -132 -266 15 -68 68 -130 118 -140
21 -4 35 -16 46 -38 18 -39 69 -66 125 -66 47 0 52 5 45 43 -5 24 -10 27 -42
27 -21 0 -46 6 -57 14 -19 14 -19 15 1 21 94 29 135 88 135 197 0 115 -38 178
-124 203 -54 16 -65 17 -115 5z m95 -75 c23 -10 39 -26 49 -49 30 -72 11 -181
-36 -206 -39 -21 -99 -14 -128 15 -23 22 -26 35 -29 103 -4 72 -2 80 22 109
23 28 36 34 79 42 4 0 23 -6 43 -14z"/>
<path d="M3381 2580 c-103 -24 -160 -139 -132 -266 15 -68 68 -130 118 -140
21 -4 35 -16 46 -38 18 -39 69 -66 125 -66 47 0 52 5 45 43 -5 24 -10 27 -42
27 -21 0 -46 6 -57 14 -19 14 -19 15 1 21 94 29 135 88 135 197 0 115 -38 178
-124 203 -54 16 -65 17 -115 5z m95 -75 c23 -10 39 -26 49 -49 30 -72 11 -181
-36 -206 -39 -21 -99 -14 -128 15 -23 22 -26 35 -29 103 -4 72 -2 80 22 109
23 28 36 34 79 42 4 0 23 -6 43 -14z"/>
<path d="M4708 2543 c-12 -3 -18 -14 -18 -34 0 -22 -5 -29 -20 -29 -16 0 -20
-7 -20 -30 0 -23 5 -30 19 -30 16 0 19 -11 23 -100 4 -86 8 -104 27 -124 28
-29 68 -38 115 -25 41 11 39 9 26 44 -8 21 -14 24 -35 19 -44 -11 -55 9 -55
102 l0 84 45 0 c43 0 45 1 45 30 0 29 -2 30 -45 30 -45 0 -45 0 -45 35 0 36
-11 41 -62 28z"/>
<path d="M2436 2479 c-112 -19 -154 -190 -67 -273 55 -53 158 -54 210 -1 l26
26 -24 20 c-23 19 -23 19 -48 -1 -47 -37 -112 -18 -128 38 -6 22 -6 22 99 22
l106 0 0 35 c0 99 -70 152 -174 134z m82 -72 c6 -5 12 -18 12 -28 0 -17 -8
-19 -60 -19 -41 0 -60 4 -60 13 1 45 67 66 108 34z"/>
<path d="M2773 2479 c-73 -15 -113 -70 -113 -156 0 -98 57 -156 155 -156 57 0
96 18 114 52 9 15 6 22 -15 35 -23 16 -26 16 -51 -4 -14 -11 -39 -20 -54 -20
-34 0 -69 31 -69 60 0 19 7 20 100 20 l100 0 0 50 c0 40 -5 56 -28 81 -31 34
-86 50 -139 38z m85 -77 c26 -33 15 -42 -53 -42 -36 0 -65 3 -65 6 0 3 5 14
11 25 20 38 80 44 107 11z"/>
<path d="M4156 2479 c-112 -19 -154 -190 -67 -273 55 -53 158 -54 210 -1 l26
26 -24 20 c-23 19 -23 19 -48 -1 -47 -37 -112 -18 -128 38 -6 22 -6 22 99 22
l106 0 0 35 c0 99 -70 152 -174 134z m82 -72 c6 -5 12 -18 12 -28 0 -17 -8
-19 -60 -19 -41 0 -60 4 -60 13 1 45 67 66 108 34z"/>
<path d="M4460 2479 c-72 -16 -104 -96 -57 -143 13 -13 49 -31 81 -40 49 -15
57 -20 54 -39 -4 -31 -61 -36 -98 -8 l-28 20 -22 -24 c-25 -26 -21 -39 18 -59
97 -48 212 -8 212 75 0 43 -37 77 -105 97 -47 14 -60 23 -60 38 0 15 8 20 38
22 21 2 45 -2 53 -8 17 -15 39 -7 54 19 9 17 6 22 -17 34 -39 20 -82 25 -123
16z"/>
<path d="M1980 2353 c0 -145 8 -166 64 -181 43 -12 80 -5 102 19 22 24 34 24
34 -1 0 -16 7 -20 35 -20 l35 0 0 155 0 155 -40 0 -40 0 0 -105 c0 -92 -3
-108 -20 -125 -23 -23 -62 -26 -78 -7 -6 7 -13 62 -14 123 l-3 109 -37 3 -38
3 0 -128z"/>
<path d="M3010 2325 l0 -155 40 0 40 0 0 91 c0 119 15 149 76 149 28 0 32 4
36 30 3 17 2 32 0 35 -14 13 -68 3 -89 -17 l-23 -21 0 21 c0 19 -6 22 -40 22
l-40 0 0 -155z"/>
<path d="M3700 2353 c0 -145 8 -166 64 -181 43 -12 80 -5 102 19 22 24 34 24
34 -1 0 -16 7 -20 35 -20 l35 0 0 155 0 155 -40 0 -40 0 0 -105 c0 -92 -3
-108 -20 -125 -23 -23 -62 -26 -78 -7 -6 7 -13 62 -14 123 l-3 109 -37 3 -38
3 0 -128z"/>
</g>
</svg>
